# xmcd
#
# Track frame offsets:
#        150
#        21175
#        38804
#        58163
#        78222
#        97472
#        117957
#        138359
#        141048
#        160056
#
# Disc length: 2359 seconds
#
# Revision: 0
# Processed by: cddbd v1.5.2PL0 Copyright (c) Steve Scherf et al.
# Submitted via: ExactAudioCopy v0.95b4
#
DISCID=8509350a
DTITLE=Dan Manjovi - Woke Up This Morning
DYEAR=2008
DGENRE=Pop
TTITLE0=Forgotten How To Dream
TTITLE1=Celebrity
TTITLE2=I Fall Down
TTITLE3=Give 'Em What You Got (Takin' It Back)
TTITLE4=Everybody's Got An Agenda
TTITLE5=Daddy Longlegs
TTITLE6=Is Anybody Watching
TTITLE7=Prelude
TTITLE8=Things'll Get Better
TTITLE9=Celebrity (Electronica Remix)
EXTD=Copyright (c) 2008 Dan Manjovi
EXTD=Manufactured by Amtech  www.amtechdisc.com
EXTT0=
EXTT1=
EXTT2=
EXTT3=
EXTT4=
EXTT5=
EXTT6=
EXTT7=
EXTT8=
EXTT9=
PLAYORDER=
